:SAMPLES-PER-SECOND 30
:FULLY-SPECIFIED
:DEGREES
93
root  -24.4146 14.9866 -0.919769 -167.09 76.6101 -136.774
RightUpLeg  -81.6169 -9.08758 13.6194
RightLeg  105.352 15.1571 -11.4966
RightFoot  -8.05646 0.159345 -3.54605
RightToes  2.85217e-009 -3.18055e-015 8.94531e-016
Spine  62.7778 -2.12303 -1.28682
Spine1  15.002 -1.17677 -1.50774
HEad  -21.4392 -1.36128 8.12744
LeftShoulder1  0 -2.69403e-036 -1.28585e-037
LeftArm  -5.35532 -51.3719 -75.8917
LeftForeArm  -131.937 -51.0987 167.367
LeftHand  0.217613 4.31773 13.0606
RightShoulder  -2.48481e-017 0 -8.08114e-019
RightArm  -2.79678 37.2335 69.5826
RightForeArm  -90.8212 46.8757 -153.866
RightHand  3.58962 -15.885 -23.1637
LeftUpLeg  -49.9621 -4.753 12.4695
LeftLeg  147.804 -2.55294 -8.37837
LeftFoot  -32.5832 -0.175867 -0.470892
LeftToes  -3.29237e-010 -4.9359e-011 -7.59376e-011
94
root  -23.5709 14.3041 -0.598847 -179.111 75.7984 -148.76
RightUpLeg  -83.9585 -8.8781 11.4756
RightLeg  109.275 16.4308 -12.1638
RightFoot  -8.84254 0.156233 -4.09795
RightToes  2.85217e-009 -3.18055e-015 8.94531e-016
Spine  61.7514 -1.67044 -2.11056
Spine1  15.2884 -1.26681 -1.43204
HEad  -21.7978 -1.81712 8.92017
LeftShoulder1  0 -2.69403e-036 -1.28585e-037
LeftArm  -4.77316 -51.3171 -76.5873
LeftForeArm  -132.098 -51.023 167.44
LeftHand  0.213302 4.28744 12.9439
RightShoulder  -2.48481e-017 0 -8.08114e-019
RightArm  -3.393 37.0891 69.3679
RightForeArm  -91.6619 46.5367 -154.381
RightHand  3.52624 -15.6456 -23.3041
LeftUpLeg  -47.906 -6.25822 13.9643
LeftLeg  150.208 2.17465 -10.3
LeftFoot  -33.9067 0.133266 1.27506
LeftToes  -3.29237e-010 -4.9359e-011 -7.59376e-011
95
root  -22.7581 13.907 -0.308235 170.555 74.6477 -159.546
RightUpLeg  -85.6406 -8.88406 9.49845
RightLeg  112.34 17.6236 -12.8384
RightFoot  -9.48397 0.147561 -4.56461
RightToes  2.85217e-009 -3.18055e-015 8.94531e-016
Spine  60.7032 -1.32072 -3.04006
Spine1  15.5782 -1.39075 -1.65978
HEad  -22.9354 -2.2937 9.60867
LeftShoulder1  0 -2.69403e-036 -1.28585e-037
LeftArm  -4.25067 -51.5252 -76.796
LeftForeArm  -132.889 -50.8705 167.621
LeftHand  0.274042 4.51803 12.8679
RightShoulder  -2.48481e-017 0 -8.08114e-019
RightArm  -4.59415 37.0209 67.9511
RightForeArm  -92.8772 46.1331 -154.998
RightHand  3.42547 -15.4487 -22.8716
LeftUpLeg  -45.594 -7.61961 15.3249
LeftLeg  151.21 6.66359 -12.1676
LeftFoot  -34.8741 0.433056 2.83083
LeftToes  -3.29237e-010 -4.9359e-011 -7.59376e-011
96
root  -21.9619 13.8231 -0.0398897 164.095 73.2055 -166.857
RightUpLeg  -86.4832 -9.38015 8.34581
RightLeg  114.767 18.6513 -13.3473
RightFoot  -11.0476 0.0830707 -4.29778
RightToes  2.85217e-009 -3.18055e-015 8.94531e-016
Spine  59.585 -1.2636 -3.62998
Spine1  15.9206 -1.59826 -1.7351
HEad  -24.3192 -3.09071 9.60201
LeftShoulder1  0 -2.69403e-036 -1.28585e-037
LeftArm  -3.89794 -51.8806 -76.6407
LeftForeArm  -133.533 -50.8627 167.676
LeftHand  0.33547 4.74523 12.7203
RightShoulder  -2.48481e-017 0 -8.08114e-019
RightArm  -5.69662 37.237 66.2904
RightForeArm  -92.9769 45.8911 -155.317
RightHand  3.39195 -15.4456 -22.4989
LeftUpLeg  -43.8729 -8.41766 16.9372
LeftLeg  151.204 9.82226 -13.6656
LeftFoot  -34.1596 0.637379 4.04138
LeftToes  -3.29237e-010 -4.9359e-011 -7.59376e-011
97
root  -21.2271 14.0383 0.206317 162.072 71.8489 -169.764
RightUpLeg  -85.971 -10.3549 8.37887
RightLeg  116.247 19.3185 -13.6486
RightFoot  -13.5476 -0.0078059 -3.67104
RightToes  2.85217e-009 -3.18055e-015 8.94531e-016
Spine  58.944 -1.51374 -3.44981
Spine1  15.762 -1.88806 -1.14613
HEad  -25.1172 -4.144 9.06163
LeftShoulder1  0 -2.69403e-036 -1.28585e-037
LeftArm  -3.6704 -52.0945 -76.4419
LeftForeArm  -133.522 -51.0921 167.493
LeftHand  0.348331 4.79041 12.6625
RightShoulder  -2.48481e-017 0 -8.08114e-019
RightArm  -5.85105 37.7647 65.7834
RightForeArm  -91.5615 45.9315 -155.17
RightHand  3.48949 -15.6607 -22.8395
LeftUpLeg  -42.4844 -8.62847 19.1145
LeftLeg  150.514 11.2548 -14.6829
LeftFoot  -32.7503 0.82386 5.4055
LeftToes  -3.29237e-010 -4.9359e-011 -7.59376e-011
98
root  -20.5518 14.4852 0.412271 162.264 70.8484 -170.229
RightUpLeg  -84.0533 -11.5729 9.12893
RightLeg  116.766 19.6098 -13.8297
RightFoot  -16.244 -0.091386 -3.49855
RightToes  2.85217e-009 -3.18055e-015 8.94531e-016
Spine  59.1217 -1.92386 -2.64903
Spine1  14.6859 -2.19713 -0.0345268
HEad  -25.2362 -5.06127 8.8216
LeftShoulder1  0 -2.69403e-036 -1.28585e-037
LeftArm  -3.33385 -52.2552 -76.4282
LeftForeArm  -133.287 -51.4017 167.226
LeftHand  0.351326 4.8055 12.6953
RightShoulder  -2.48481e-017 0 -8.08114e-019
RightArm  -5.43247 38.3206 66.4318
RightForeArm  -90.4813 46.0055 -155.002
RightHand  3.69721 -16.0594 -23.716
LeftUpLeg  -40.6044 -8.74437 21.315
LeftLeg  149.032 11.8352 -15.76
LeftFoot  -32.0427 0.96335 6.44237
LeftToes  -3.29237e-010 -4.9359e-011 -7.59376e-011
99
root  -19.8688 15.0848 0.562792 162.317 70.2794 -170.711
RightUpLeg  -81.2395 -12.5872 9.73191
RightLeg  116.823 19.7101 -13.9557
RightFoot  -19.0614 -0.183647 -3.64112
RightToes  2.85217e-009 -3.18055e-015 8.94531e-016
Spine  59.6225 -2.29986 -1.77239
Spine1  13.1774 -2.4535 1.04577
HEad  -25.3616 -5.48788 9.20537
LeftShoulder1  0 -2.69403e-036 -1.28585e-037
LeftArm  -3.06628 -52.7752 -76.2686
LeftForeArm  -133.264 -51.5964 167.066
LeftHand  0.37116 4.88504 12.7057
RightShoulder  -2.48481e-017 0 -8.08114e-019
RightArm  -5.347 38.7693 67.1063
RightForeArm  -90.7317 45.9257 -155.122
RightHand  3.92086 -16.5172 -24.4828
LeftUpLeg  -38.2713 -9.1505 22.5858
LeftLeg  146.765 12.0786 -17.1626
LeftFoot  -31.1443 0.873426 6.18241
LeftToes  -3.29237e-010 -4.9359e-011 -7.59376e-011
100
root  -19.1139 15.7448 0.658943 160.816 70.1377 -173.377
RightUpLeg  -78.7546 -12.7836 9.47198
RightLeg  116.943 19.782 -14.0026
RightFoot  -22.0601 -0.259986 -3.43655
RightToes  2.85217e-009 -3.18055e-015 8.94531e-016
Spine  59.2579 -2.29028 -1.57143
Spine1  11.9615 -2.72264 2.04402
HEad  -25.8165 -5.32051 9.57421
LeftShoulder1  0 -2.69403e-036 -1.28585e-037
LeftArm  -3.45803 -53.6099 -75.3803
LeftForeArm  -133.117 -51.6402 167.018
LeftHand  0.354697 4.82484 12.7559
RightShoulder  -2.48481e-017 0 -8.08114e-019
RightArm  -5.53722 39.2506 67.3056
RightForeArm  -91.2013 45.8425 -155.261
RightHand  4.0688 -16.8598 -24.8183
LeftUpLeg  -36.4283 -9.41301 22.0799
LeftLeg  144.34 11.413 -18.1895
LeftFoot  -28.6972 0.601293 5.12186
LeftToes  -3.29237e-010 -4.9359e-011 -7.59376e-011
101
root  -18.3265 16.405 0.698783 158.089 70.3571 -177.828
RightUpLeg  -76.785 -12.2348 8.50948
RightLeg  117.059 19.7748 -13.927
RightFoot  -24.8325 -0.294943 -2.96257
RightToes  2.85217e-009 -3.18055e-015 8.94531e-016
Spine  58.2745 -1.93078 -2.00578
Spine1  10.8107 -3.05389 3.15632
HEad  -26.0524 -4.66438 9.44822
LeftShoulder1  0 -2.69403e-036 -1.28585e-037
LeftArm  -4.62209 -54.1371 -73.7236
LeftForeArm  -132.749 -51.5841 167.036
LeftHand  0.29491 4.59568 12.8272
RightShoulder  -2.48481e-017 0 -8.08114e-019
RightArm  -5.38935 39.6961 67.4601
RightForeArm  -91.0938 45.894 -155.187
RightHand  4.11531 -17.0063 -24.7916
LeftUpLeg  -35.4529 -9.33849 20.2828
LeftLeg  142.162 10.0543 -18.6287
LeftFoot  -24.6543 0.28483 3.83301
LeftToes  -3.29237e-010 -4.9359e-011 -7.59376e-011
